<svg xmlns="http://www.w3.org/2000/svg" width="175" height="225" viewBox="0 0 175 225"><g><path fill="#1EA6C6" d="M167.434 1h-161.43399999999997v223h161.434c4.179 0 7.566-3.592 7.566-8.022v-207.584c0-4.431-3.388-7.394-7.566-7.394z"/><path fill="#2E1547" d="M159 223c0 1.104-.896 2-2 2h-4c-1.104 0-2-.896-2-2v-221c0-1.104.896-2 2-2h4c1.104 0 2 .896 2 2v221z"/><g><g fill="#FFFAC7"><path d="M14 19h-5v-6h5v6zM14 30h-5v-6h5v6zM14 42h-5v-6h5v6zM14 53h-5v-6h5v6zM14 64h-5v-6h5v6zM14 76h-5v-6h5v6zM14 87h-5v-6h5v6zM14 98h-5v-6h5v6zM14 110h-5v-6h5v6zM14 121h-5v-6h5v6zM14 133h-5v-6h5v6zM14 144h-5v-6h5v6zM14 155h-5v-6h5v6zM14 167h-5v-6h5v6zM14 178h-5v-6h5v6zM14 189h-5v-6h5v6zM14 201h-5v-6h5v6zM14 212h-5v-6h5v6z"/></g><path d="M0 14h14v1h-14zM0 17h14v1h-14zM0 25h14v1h-14zM0 28h14v1h-14zM0 37h14v1h-14zM0 40h14v1h-14zM0 48h14v1h-14zM0 51h14v1h-14zM0 59h14v1h-14zM0 62h14v1h-14zM0 71h14v1h-14zM0 74h14v1h-14zM0 82h14v1h-14zM0 85h14v1h-14zM0 93h14v1h-14zM0 96h14v1h-14zM0 105h14v1h-14zM0 108h14v1h-14zM0 116h14v1h-14zM0 119h14v1h-14zM0 128h14v1h-14zM0 131h14v1h-14zM0 139h14v1h-14zM0 142h14v1h-14zM0 150h14v1h-14zM0 153h14v1h-14zM0 162h14v1h-14zM0 165h14v1h-14zM0 173h14v1h-14zM0 176h14v1h-14zM0 184h14v1h-14zM0 187h14v1h-14zM0 196h14v1h-14zM0 199h14v1h-14zM0 207h14v1h-14zM0 210h14v1h-14z"/></g></g></svg>