<svg xmlns="http://www.w3.org/2000/svg" width="290.72" height="224.21" viewBox="0 0 290.72 224.21"><path d="M184.89 116.85l-13.8-3.8c.2-2.3.33-4.62.33-6.98 0-1.69-.07-3.36-.18-5.03l13.83-3.81c.92-.26 1.46-1.22 1.29-2.17l-1.51-8.61c-.17-.94-1-1.67-1.96-1.6l-14.09 1.14c-1.05-3.93-2.4-7.74-4.03-11.4l11.58-8.23c.78-.56.95-1.65.47-2.48l-4.37-7.57c-.48-.83-1.51-1.23-2.39-.83l-12.8 5.86c-2.33-3.31-4.91-6.43-7.72-9.33l8.04-11.67c.54-.79.33-1.87-.4-2.49l-6.69-5.62c-.74-.61-1.84-.64-2.53.03l-10.02 9.88c-3.31-2.3-6.8-4.35-10.45-6.12l3.57-13.72c.24-.93-.33-1.87-1.23-2.2l-8.21-2.99c-.9-.32-1.95.03-2.36.9l-6.06 12.77c-3.85-1-7.82-1.7-11.88-2.09l-1.35-14.15c-.09-.96-.95-1.55-1.91-1.55h-8.74c-.96 0-1.82.59-1.91 1.55l-1.35 14.2c-4.03.39-7.97 1.06-11.79 2.04l-6.21-13.09c-.41-.87-1.46-1.23-2.36-.9l-8.21 2.99c-.9.33-1.47 1.27-1.23 2.2l3.66 14.03c-3.58 1.73-6.99 3.73-10.24 5.97l-10.5-10.31c-.68-.68-1.79-.65-2.52-.04l-6.69 5.62c-.74.62-.95 1.7-.4 2.49l8.4 12.17c-2.72 2.8-5.23 5.8-7.51 8.99l-13.62-6.24c-.87-.4-1.9 0-2.38.83l-4.37 7.57c-.48.83-.31 1.92.47 2.48l12.23 8.69c-1.58 3.5-2.9 7.14-3.95 10.9l-15.17-1.22c-.96-.08-1.79.65-1.96 1.59l-1.51 8.61c-.17.94.37 1.91 1.29 2.17l14.69 4.05c-.14 1.9-.23 3.82-.23 5.75 0 1.93.09 3.83.23 5.72l-14.86 4.09c-.93.26-1.46 1.22-1.29 2.17l1.52 8.61c.17.94 1 1.67 1.96 1.6l15.32-1.23c1.03 3.7 2.33 7.28 3.87 10.73l-12.65 8.99c-.78.56-.96 1.65-.47 2.48l4.37 7.57c.48.83 1.51 1.23 2.39.83l14.06-6.44c2.21 3.09 4.63 6.02 7.26 8.75l-8.85 12.83c-.54.79-.33 1.87.4 2.49l6.69 5.62c.74.62 1.84.64 2.53-.04l11.01-10.85c3.11 2.16 6.39 4.09 9.8 5.79l-3.91 15.02c-.24.93.33 1.87 1.23 2.2l8.21 2.99c.9.33 1.95-.03 2.36-.9l6.59-13.87c3.65.97 7.41 1.67 11.25 2.1l1.45 15.35c.09.96.95 1.65 1.91 1.65l8.74.01c.96 0 1.82-.69 1.91-1.65l1.43-15.16c3.88-.33 7.68-.95 11.38-1.83l6.53 13.75c.42.87 1.46 1.22 2.36.9l8.21-2.99c.9-.33 1.47-1.28 1.23-2.21l-3.78-14.51c3.54-1.64 6.94-3.54 10.17-5.68l10.68 10.53c.68.67 1.79.65 2.52.04l6.7-5.61c.73-.62.95-1.7.4-2.5l-8.38-12.15c2.79-2.77 5.37-5.74 7.71-8.9l13.42 6.14c.87.39 1.9 0 2.38-.83l4.37-7.56c.48-.83.31-1.92-.47-2.48l-11.83-8.4c1.68-3.57 3.09-7.29 4.23-11.13l14.47 1.16c.95.07 1.79-.65 1.95-1.6l1.52-8.6c.16-.99-.37-1.96-1.29-2.22zm-30.56-17.82h-28.29c-1.4-6-4.71-12.28-9.33-16.75l14.21-24.64c12.75 9.82 21.5 24.39 23.41 41.39zm-60.65-54.01c8.69 0 16.95 1.83 24.44 5.1l-14.15 24.5c-3.24-1.06-6.7-1.64-10.29-1.64-3.32 0-6.52.5-9.55 1.4l-14.19-24.57c7.3-3.08 15.32-4.79 23.74-4.79zm-22.46 36.71c-4.91 4.54-8.44 11.29-9.89 17.29h-28.3c1.94-17 10.93-32.04 24.02-41.87l14.17 24.58zm8.61 24.35c0-7.65 6.2-13.85 13.85-13.85 7.65 0 13.85 6.2 13.85 13.85s-6.2 13.85-13.85 13.85c-7.65 0-13.85-6.2-13.85-13.85zm13.85 61.05c-8.25 0-16.1-1.64-23.28-4.61l14.22-24.62c2.88.82 5.92 1.27 9.06 1.27 3.42 0 6.72-.52 9.82-1.48l14.17 24.54c-7.37 3.16-15.47 4.9-23.99 4.9zm-60.53-53.1h28.4c1.61 6 5.17 12.33 10.04 16.7l-14.15 24.51c-13.04-9.65-22.1-24.21-24.29-41.21zm97.38 40.73l-14.19-24.57c4.57-4.3 7.92-10.17 9.46-16.17h28.4c-2.15 17.01-10.96 31.11-23.67 40.74zm54.1-41.15l6.65 11.26c-2.61 2.58-4.87 5.41-6.79 8.41l-12.41-4.16c-.91-.31-1.77.25-2.16 1.13l-3.55 7.98c-.39.88-.23 1.89.6 2.36l11.41 6.44c-.95 3.49-1.51 7.06-1.69 10.67l-12.83 2.6c-.94.19-1.41 1.1-1.31 2.06l.92 8.69c.1.95.74 1.75 1.7 1.74l13.09-.13c.9 3.44 2.17 6.82 3.85 10.07l-10.14 8.94c-.72.63-.8 1.75-.24 2.53l5.14 7.07c.56.78 1.65 1.05 2.48.56l11.62-6.88c2.57 2.59 5.38 4.84 8.37 6.76l-4.3 12.79c-.31.91.2 1.89 1.07 2.28l7.98 3.55c.88.39 1.94.1 2.42-.73l6.63-11.76c3.47.94 7.03 1.5 10.62 1.68l2.67 13.24c.19.94 1.12 1.54 2.07 1.44l8.69-.91c.95-.1 1.73-.88 1.73-1.84l-.14-13.5c3.42-.9 6.79-2.17 10.02-3.84l9.14 10.37c.63.72 1.8.86 2.58.3l7.07-5.14c.77-.56 1-1.72.51-2.54l-7.04-11.89c2.58-2.56 4.82-5.36 6.73-8.33l13.1 4.42c.91.31 1.99-.15 2.39-1.03l3.55-7.98c.39-.88.01-1.99-.83-2.46l-12.06-6.78c.93-3.46 1.5-7 1.67-10.57l13.57-2.73c.94-.19 1.65-1.13 1.55-2.08l-.92-8.69c-.1-.95-.99-1.72-1.95-1.72l-13.83.15c-.9-3.43-2.17-6.79-3.84-10.02l10.04-8.85c.72-.63.73-1.7.17-2.48l-5.13-7.07c-.56-.78-1.59-1.1-2.41-.61l-11.53 6.82c-2.57-2.6-5.38-4.85-8.37-6.77l4.28-12.73c.31-.91-.21-1.87-1.08-2.26l-7.98-3.56c-.88-.39-1.93-.13-2.41.71l-6.59 11.7c-3.47-.94-7.03-1.51-10.62-1.68l-2.66-13.17c-.19-.94-1.11-1.51-2.07-1.41l-8.69.91c-.95.1-1.74.85-1.73 1.81l.14 13.42c-3.44.91-6.82 2.18-10.07 3.86l-8.66-9.8c-.63-.72-1.66-.67-2.43-.1l-7.07 5.14c-.81.55-1.18 1.51-.69 2.34zm59.73 33.21c7.32 10.08 5.09 24.19-5 31.52-10.08 7.33-24.2 5.09-31.52-4.99-7.33-10.08-5.09-24.2 4.99-31.52 10.09-7.32 24.2-5.09 31.53 4.99zm-16.02-138.74l-8.62 8.48c-3.02-1.44-6.2-2.37-9.44-2.8l-2.31-12.49c-.17-.94-1.07-1.34-2.03-1.26l-8.7.76c-.96.08-1.77.63-1.78 1.59l-.11 13c-2.81 1.01-5.49 2.43-7.97 4.24l-10.78-7.36c-.79-.55-1.35.11-1.96.84l-5.62 6.69c-.62.73-1.16 1.4-.49 2.08l9.31 9.49c-1.3 2.64-2.31 5.32-2.83 8.14l-13.6 2.47c-.95.17-1.37 1.05-1.28 2.01l.75 8.7c.08.95.63 1.77 1.59 1.77l13.34.1c.87 2.84 2.14 5.57 3.81 8.1l-7.73 11.19c-.55.79-.35 1.89.38 2.51l6.69 5.62c.73.62 1.86.61 2.54-.06l9.05-8.92c2.9 1.62 6.02 2.72 9.17 3.37l2.28 12.2c.17.94 1.08 1.33 2.04 1.25l8.71-.77c.96-.09 1.78-.64 1.78-1.59l.09-11.67c3.37-.93 6.6-2.46 9.55-4.5l9.57 6.58c.79.55 1.7.2 2.32-.54l5.62-6.69c.62-.74.81-1.7.13-2.38l-7.79-7.91c1.79-3.29 2.9-6.81 3.44-10.38l11.16-2.06c.94-.17 1.34-1.07 1.26-2.03l-.76-8.7c-.09-.96-.63-1.77-1.59-1.78l-11.3-.09c-1.1-3.34-2.75-6.53-4.96-9.41l6.68-9.71c.54-.79.19-1.7-.55-2.32l-6.69-5.62c-.72-.63-1.69-.81-2.37-.14zm-15.05 43.14c-3.7 4.41-10.26 4.98-14.67 1.28s-4.98-10.27-1.28-14.67c3.7-4.41 10.27-4.98 14.67-1.28 4.41 3.7 4.98 10.26 1.28 14.67z" fill="#940F2D"/></svg>