<?xml version="1.0" encoding="utf-8"?>
<!-- Generator: Adobe Illustrator 16.0.4, SVG Export Plug-In . SVG Version: 6.00 Build 0)  -->
<!DOCTYPE svg PUBLIC "-//W3C//DTD SVG 1.1//EN" "http://www.w3.org/Graphics/SVG/1.1/DTD/svg11.dtd">
<svg version="1.1" id="Layer_1" xmlns="http://www.w3.org/2000/svg" xmlns:xlink="http://www.w3.org/1999/xlink" x="0px" y="0px"
	 width="290.72px" height="224.21px" viewBox="0 0 290.72 224.21" enable-background="new 0 0 290.72 224.21" xml:space="preserve">
	<g>
		<path fill="#940F2D" d="M184.89,116.85l-13.8-3.8c0.2-2.3,0.33-4.62,0.33-6.98c0-1.69-0.07-3.36-0.18-5.03l13.83-3.81
			c0.92-0.26,1.46-1.22,1.29-2.17l-1.51-8.61c-0.17-0.94-1-1.67-1.96-1.6l-14.09,1.14c-1.05-3.93-2.4-7.74-4.03-11.4l11.58-8.23
			c0.78-0.56,0.95-1.65,0.47-2.48l-4.37-7.57c-0.48-0.83-1.51-1.23-2.39-0.83l-12.8,5.86c-2.33-3.31-4.91-6.43-7.72-9.33l8.04-11.67
			c0.54-0.79,0.33-1.87-0.4-2.49l-6.69-5.62c-0.74-0.61-1.84-0.64-2.53,0.03l-10.02,9.88c-3.31-2.3-6.8-4.35-10.45-6.12l3.57-13.72
			c0.24-0.93-0.33-1.87-1.23-2.2l-8.21-2.99c-0.9-0.32-1.95,0.03-2.36,0.9l-6.06,12.77c-3.85-1-7.82-1.7-11.88-2.09l-1.35-14.15
			c-0.09-0.96-0.95-1.55-1.91-1.55h-8.74c-0.96,0-1.82,0.59-1.91,1.55l-1.35,14.2c-4.03,0.39-7.97,1.06-11.79,2.04l-6.21-13.09
			c-0.41-0.87-1.46-1.23-2.36-0.9l-8.21,2.99c-0.9,0.33-1.47,1.27-1.23,2.2l3.66,14.03c-3.58,1.73-6.99,3.73-10.24,5.97l-10.5-10.31
			c-0.68-0.68-1.79-0.65-2.52-0.04l-6.69,5.62c-0.74,0.62-0.95,1.7-0.4,2.49l8.4,12.17c-2.72,2.8-5.23,5.8-7.51,8.99l-13.62-6.24
			c-0.87-0.4-1.9,0-2.38,0.83l-4.37,7.57c-0.48,0.83-0.31,1.92,0.47,2.48l12.23,8.69c-1.58,3.5-2.9,7.14-3.95,10.9L3.67,83.91
			c-0.96-0.08-1.79,0.65-1.96,1.59L0.2,94.11c-0.17,0.94,0.37,1.91,1.29,2.17l14.69,4.05c-0.14,1.9-0.23,3.82-0.23,5.75
			c0,1.93,0.09,3.83,0.23,5.72l-14.86,4.09c-0.93,0.26-1.46,1.22-1.29,2.17l1.52,8.61c0.17,0.94,1,1.67,1.96,1.6l15.32-1.23
			c1.03,3.7,2.33,7.28,3.87,10.73l-12.65,8.99c-0.78,0.56-0.96,1.65-0.47,2.48l4.37,7.57c0.48,0.83,1.51,1.23,2.39,0.83l14.06-6.44
			c2.21,3.09,4.63,6.02,7.26,8.75l-8.85,12.83c-0.54,0.79-0.33,1.87,0.4,2.49l6.69,5.62c0.74,0.62,1.84,0.64,2.53-0.04L49.44,170
			c3.11,2.16,6.39,4.09,9.8,5.79l-3.91,15.02c-0.24,0.93,0.33,1.87,1.23,2.2l8.21,2.99c0.9,0.33,1.95-0.03,2.36-0.9l6.59-13.87
			c3.65,0.97,7.41,1.67,11.25,2.1l1.45,15.35c0.09,0.96,0.95,1.65,1.91,1.65l8.74,0.01c0.96,0,1.82-0.69,1.91-1.65l1.43-15.16
			c3.88-0.33,7.68-0.95,11.38-1.83l6.53,13.75c0.42,0.87,1.46,1.22,2.36,0.9l8.21-2.99c0.9-0.33,1.47-1.28,1.23-2.21l-3.78-14.51
			c3.54-1.64,6.94-3.54,10.17-5.68l10.68,10.53c0.68,0.67,1.79,0.65,2.52,0.04l6.7-5.61c0.73-0.62,0.95-1.7,0.4-2.5l-8.38-12.15
			c2.79-2.77,5.37-5.74,7.71-8.9l13.42,6.14c0.87,0.39,1.9,0,2.38-0.83l4.37-7.56c0.48-0.83,0.31-1.92-0.47-2.48l-11.83-8.4
			c1.68-3.57,3.09-7.29,4.23-11.13l14.47,1.16c0.95,0.07,1.79-0.65,1.95-1.6l1.52-8.6C186.34,118.08,185.81,117.11,184.89,116.85z
			 M154.33,99.03h-28.29c-1.4-6-4.71-12.28-9.33-16.75l14.21-24.64C143.67,67.46,152.42,82.03,154.33,99.03z M93.68,45.02
			c8.69,0,16.95,1.83,24.44,5.1l-14.15,24.5c-3.24-1.06-6.7-1.64-10.29-1.64c-3.32,0-6.52,0.5-9.55,1.4L69.94,49.81
			C77.24,46.73,85.26,45.02,93.68,45.02z M71.22,81.73c-4.91,4.54-8.44,11.29-9.89,17.29h-28.3c1.94-17,10.93-32.04,24.02-41.87
			L71.22,81.73z M79.83,106.08c0-7.65,6.2-13.85,13.85-13.85c7.65,0,13.85,6.2,13.85,13.85s-6.2,13.85-13.85,13.85
			C86.03,119.93,79.83,113.73,79.83,106.08z M93.68,167.13c-8.25,0-16.1-1.64-23.28-4.61l14.22-24.62c2.88,0.82,5.92,1.27,9.06,1.27
			c3.42,0,6.72-0.52,9.82-1.48l14.17,24.54C110.3,165.39,102.2,167.13,93.68,167.13z M33.15,114.03h28.4
			c1.61,6,5.17,12.33,10.04,16.7l-14.15,24.51C44.4,145.59,35.34,131.03,33.15,114.03z M130.53,154.76l-14.19-24.57
			c4.57-4.3,7.92-10.17,9.46-16.17h28.4C152.05,131.03,143.24,145.13,130.53,154.76z"/>
		<path fill="#940F2D" d="M184.63,113.61l6.65,11.26c-2.61,2.58-4.87,5.41-6.79,8.41l-12.41-4.16c-0.91-0.31-1.77,0.25-2.16,1.13
			l-3.55,7.98c-0.39,0.88-0.23,1.89,0.6,2.36l11.41,6.44c-0.95,3.49-1.51,7.06-1.69,10.67l-12.83,2.6c-0.94,0.19-1.41,1.1-1.31,2.06
			l0.92,8.69c0.1,0.95,0.74,1.75,1.7,1.74l13.09-0.13c0.9,3.44,2.17,6.82,3.85,10.07l-10.14,8.94c-0.72,0.63-0.8,1.75-0.24,2.53
			l5.14,7.07c0.56,0.78,1.65,1.05,2.48,0.56l11.62-6.88c2.57,2.59,5.38,4.84,8.37,6.76l-4.3,12.79c-0.31,0.91,0.2,1.89,1.07,2.28
			l7.98,3.55c0.88,0.39,1.94,0.1,2.42-0.73l6.63-11.76c3.47,0.94,7.03,1.5,10.62,1.68l2.67,13.24c0.19,0.94,1.12,1.54,2.07,1.44
			l8.69-0.91c0.95-0.1,1.73-0.88,1.73-1.84l-0.14-13.5c3.42-0.9,6.79-2.17,10.02-3.84l9.14,10.37c0.63,0.72,1.8,0.86,2.58,0.3
			l7.07-5.14c0.77-0.56,1-1.72,0.51-2.54l-7.04-11.89c2.58-2.56,4.82-5.36,6.73-8.33l13.1,4.42c0.91,0.31,1.99-0.15,2.39-1.03
			l3.55-7.98c0.39-0.88,0.01-1.99-0.83-2.46l-12.06-6.78c0.93-3.46,1.5-7,1.67-10.57l13.57-2.73c0.94-0.19,1.65-1.13,1.55-2.08
			l-0.92-8.69c-0.1-0.95-0.99-1.72-1.95-1.72l-13.83,0.15c-0.9-3.43-2.17-6.79-3.84-10.02l10.04-8.85c0.72-0.63,0.73-1.7,0.17-2.48
			l-5.13-7.07c-0.56-0.78-1.59-1.1-2.41-0.61l-11.53,6.82c-2.57-2.6-5.38-4.85-8.37-6.77l4.28-12.73c0.31-0.91-0.21-1.87-1.08-2.26
			l-7.98-3.56c-0.88-0.39-1.93-0.13-2.41,0.71l-6.59,11.7c-3.47-0.94-7.03-1.51-10.62-1.68l-2.66-13.17
			c-0.19-0.94-1.11-1.51-2.07-1.41l-8.69,0.91c-0.95,0.1-1.74,0.85-1.73,1.81l0.14,13.42c-3.44,0.91-6.82,2.18-10.07,3.86l-8.66-9.8
			c-0.63-0.72-1.66-0.67-2.43-0.1l-7.07,5.14C184.51,111.82,184.14,112.78,184.63,113.61z M244.36,146.82
			c7.32,10.08,5.09,24.19-5,31.52c-10.08,7.33-24.2,5.09-31.52-4.99c-7.33-10.08-5.09-24.2,4.99-31.52
			C222.92,134.51,237.03,136.74,244.36,146.82z"/>
		<path fill="#940F2D" d="M228.34,8.08l-8.62,8.48c-3.02-1.44-6.2-2.37-9.44-2.8l-2.31-12.49c-0.17-0.94-1.07-1.34-2.03-1.26
			l-8.7,0.76c-0.96,0.08-1.77,0.63-1.78,1.59l-0.11,13c-2.81,1.01-5.49,2.43-7.97,4.24l-10.78-7.36c-0.79-0.55-1.35,0.11-1.96,0.84
			l-5.62,6.69c-0.62,0.73-1.16,1.4-0.49,2.08l9.31,9.49c-1.3,2.64-2.31,5.32-2.83,8.14l-13.6,2.47c-0.95,0.17-1.37,1.05-1.28,2.01
			l0.75,8.7c0.08,0.95,0.63,1.77,1.59,1.77l13.34,0.1c0.87,2.84,2.14,5.57,3.81,8.1l-7.73,11.19c-0.55,0.79-0.35,1.89,0.38,2.51
			l6.69,5.62c0.73,0.62,1.86,0.61,2.54-0.06l9.05-8.92c2.9,1.62,6.02,2.72,9.17,3.37l2.28,12.2c0.17,0.94,1.08,1.33,2.04,1.25
			l8.71-0.77c0.96-0.09,1.78-0.64,1.78-1.59l0.09-11.67c3.37-0.93,6.6-2.46,9.55-4.5l9.57,6.58c0.79,0.55,1.7,0.2,2.32-0.54
			l5.62-6.69c0.62-0.74,0.81-1.7,0.13-2.38l-7.79-7.91c1.79-3.29,2.9-6.81,3.44-10.38l11.16-2.06c0.94-0.17,1.34-1.07,1.26-2.03
			l-0.76-8.7c-0.09-0.96-0.63-1.77-1.59-1.78l-11.3-0.09c-1.1-3.34-2.75-6.53-4.96-9.41l6.68-9.71c0.54-0.79,0.19-1.7-0.55-2.32
			l-6.69-5.62C229.99,7.59,229.02,7.41,228.34,8.08z M213.29,51.22c-3.7,4.41-10.26,4.98-14.67,1.28s-4.98-10.27-1.28-14.67
			c3.7-4.41,10.27-4.98,14.67-1.28C216.42,40.25,216.99,46.81,213.29,51.22z"/>
	</g>
</svg>
