<?xml version="1.0" encoding="utf-8"?>
<!-- Generator: Adobe Illustrator 16.0.4, SVG Export Plug-In . SVG Version: 6.00 Build 0)  -->
<!DOCTYPE svg PUBLIC "-//W3C//DTD SVG 1.1//EN" "http://www.w3.org/Graphics/SVG/1.1/DTD/svg11.dtd">
<svg version="1.1" id="Layer_1" xmlns="http://www.w3.org/2000/svg" xmlns:xlink="http://www.w3.org/1999/xlink" x="0px" y="0px"
	 width="291.893px" height="229.02px" viewBox="-0.011 -3.897 291.893 229.02"
	 enable-background="new -0.011 -3.897 291.893 229.02" xml:space="preserve">
<path fill="#940F2D" d="M183.893,116.887l-13.711-3.777c0.176-2.127,0.288-4.272,0.288-6.445c0-2.114-0.108-4.202-0.275-6.272
	l13.728-3.778c1.591-0.439,2.597-2.115,2.232-3.725l-0.867-4.931c-0.211-1.636-1.729-2.865-3.373-2.736l-14.159,1.139
	c-1.124-4.136-2.584-8.132-4.347-11.961l11.598-8.239c1.347-0.957,1.718-2.876,0.824-4.264l-2.5-4.335
	c-0.758-1.466-2.606-2.102-4.104-1.419l-12.943,5.925c-2.456-3.469-5.181-6.733-8.162-9.746l8.094-11.729
	c0.938-1.358,0.629-3.29-0.684-4.288l-3.832-3.22c-1.213-1.118-3.17-1.082-4.344,0.07L137.207,43.16
	c-3.47-2.41-7.143-4.546-10.995-6.37l3.597-13.797c0.416-1.598-0.533-3.306-2.108-3.796l-4.702-1.714
	c-1.521-0.636-3.349,0.066-4.058,1.552l-6.115,12.877c-4.047-1.06-8.225-1.791-12.501-2.183l-1.347-14.243
	c-0.155-1.644-1.631-2.923-3.279-2.846h-5.007c-1.648-0.078-3.124,1.202-3.279,2.846l-1.347,14.243
	c-4.272,0.391-8.446,1.121-12.488,2.179l-6.139-12.93c-0.708-1.49-2.533-2.189-4.056-1.554l-4.704,1.713
	c-1.575,0.49-2.523,2.198-2.107,3.796l3.608,13.854c-3.839,1.817-7.498,3.944-10.957,6.343L38.996,33.047
	c-1.175-1.157-3.129-1.19-4.341-0.071l-3.836,3.218c-1.312,1-1.619,2.93-0.683,4.288L38.288,52.3
	c-2.966,2.995-5.677,6.24-8.124,9.687L17.08,55.995c-1.501-0.687-3.348-0.049-4.104,1.417l-2.504,4.336
	c-0.893,1.39-0.521,3.308,0.824,4.263l11.712,8.324c-1.754,3.803-3.208,7.77-4.333,11.874L4.335,85.053
	c-1.645-0.132-3.162,1.099-3.372,2.734l-0.87,4.931c-0.361,1.61,0.645,3.285,2.234,3.725l13.877,3.824
	c-0.173,2.111-0.285,4.24-0.285,6.397c0,2.1,0.107,4.171,0.271,6.229L2.296,116.72c-1.591,0.438-2.596,2.113-2.232,3.724
	l0.869,4.932c0.21,1.638,1.729,2.866,3.373,2.734l14.324-1.151c1.115,4.107,2.563,8.076,4.31,11.882l-11.729,8.334
	c-1.345,0.955-1.716,2.874-0.824,4.263l2.504,4.338c0.757,1.467,2.604,2.102,4.104,1.416l13.071-5.984
	c2.438,3.451,5.146,6.699,8.104,9.701l-8.166,11.835c-0.937,1.358-0.629,3.288,0.684,4.287l3.837,3.22
	c1.212,1.119,3.166,1.084,4.341-0.073l10.218-10.075c3.454,2.405,7.106,4.546,10.94,6.371l-3.614,13.869
	c-0.415,1.597,0.534,3.306,2.108,3.796l4.706,1.713c1.521,0.637,3.346-0.064,4.055-1.554l6.135-12.921
	c4.04,1.067,8.209,1.812,12.48,2.213l1.346,14.26c0.156,1.642,1.633,2.923,3.28,2.846h5.007c1.646,0.078,3.122-1.205,3.28-2.846
	l1.345-14.232c4.278-0.382,8.459-1.099,12.508-2.149l6.119,12.891c0.708,1.49,2.534,2.188,4.056,1.553l4.705-1.712
	c1.574-0.49,2.521-2.2,2.109-3.796l-3.592-13.789c3.855-1.814,7.534-3.939,11.01-6.341l10.154,10.017
	c1.176,1.158,3.131,1.191,4.344,0.072l3.836-3.217c1.311-1,1.615-2.932,0.684-4.289l-8.084-11.717
	c2.988-3.008,5.717-6.269,8.183-9.73l12.955,5.934c1.5,0.688,3.35,0.05,4.104-1.418l2.506-4.334c0.89-1.389,0.517-3.307-0.826-4.265
	l-11.585-8.233c1.771-3.824,3.237-7.817,4.371-11.95l14.175,1.143c1.646,0.131,3.164-1.1,3.373-2.736l0.871-4.93
	C186.489,119.003,185.481,117.329,183.893,116.887L183.893,116.887z M149.262,130.714l-24.864-14.354
	c0.951-3.063,1.463-6.319,1.463-9.695c0-3.314-0.498-6.513-1.416-9.526l24.886-14.367c3.127,7.338,4.861,15.414,4.861,23.895
	C154.194,115.207,152.432,123.334,149.262,130.714L149.262,130.714z M100.359,167.232v-28.698
	c6.489-1.452,12.246-4.832,16.642-9.511l24.894,14.371C132.115,156.337,117.298,165.249,100.359,167.232z M44.338,143.193
	l24.871-14.359c4.342,4.695,10.045,8.108,16.484,9.622v28.733C68.806,165.116,54.049,156.161,44.338,143.193z M85.863,46.119v28.715
	c-6.449,1.48-12.168,4.865-16.533,9.536L44.444,70.002C54.188,57.065,68.964,48.145,85.863,46.119z M141.999,70.069l-24.877,14.363
	c-4.373-4.704-10.115-8.112-16.594-9.6V46.119C117.455,48.148,132.255,57.095,141.999,70.069z M93.195,92.665
	c7.732,0,14,6.269,14,14c0,7.732-6.268,14-14,14s-14-6.268-14-14C79.195,98.933,85.463,92.665,93.195,92.665z M37.092,82.692
	l24.875,14.362c-0.935,3.038-1.438,6.266-1.438,9.61c0,3.284,0.49,6.453,1.392,9.442l-24.896,14.375
	c-3.107-7.317-4.827-15.366-4.827-23.817C32.195,98.153,33.943,90.052,37.092,82.692z M243.607,74.857
	c1.135-1.197,1.129-3.151-0.018-4.34l-9.973-10.376c1.77-3.309,2.916-6.842,3.452-10.439l14.174-2.413
	c1.626-0.276,2.792-1.844,2.593-3.484l-0.373-4.991c-0.045-1.649-1.431-3.024-3.081-3.058l-14.354-0.284
	c-1.058-3.493-2.713-6.83-4.953-9.852l8.295-11.701c0.955-1.347,0.672-3.279-0.629-4.296l-3.792-3.268
	c-1.199-1.134-3.153-1.125-4.342,0.018l-10.333,9.932c-3.323-1.774-6.874-2.923-10.489-3.455L207.378-1.28
	c-0.276-1.628-1.844-2.795-3.482-2.595L198.903-3.5c-1.649,0.044-3.026,1.432-3.058,3.082l-0.284,14.334
	c-3.494,1.064-6.83,2.728-9.852,4.976l-11.701-8.295c-1.348-0.954-3.28-0.674-4.299,0.628l-3.266,3.793
	c-1.135,1.197-1.128,3.151,0.017,4.342l9.951,10.354c-1.761,3.315-2.898,6.855-3.427,10.459l-14.177,2.415
	c-1.625,0.277-2.794,1.844-2.594,3.484l0.372,4.99c0.045,1.649,1.432,3.025,3.082,3.059l14.396,0.285
	c1.062,3.474,2.717,6.792,4.95,9.796l-8.334,11.754c-0.954,1.346-0.673,3.28,0.63,4.297l3.793,3.267
	c1.196,1.135,3.15,1.128,4.341-0.018l10.396-9.991c3.302,1.756,6.824,2.894,10.411,3.426l2.421,14.22
	c0.277,1.625,1.847,2.793,3.484,2.594l4.99-0.375c1.648-0.043,3.025-1.43,3.058-3.081l0.287-14.417
	c3.472-1.057,6.789-2.703,9.796-4.929l11.753,8.334c1.349,0.952,3.28,0.67,4.299-0.63L243.607,74.857L243.607,74.857z
	 M197.732,53.374c-4.685-4.033-5.211-11.099-1.178-15.782c4.031-4.683,11.098-5.21,15.78-1.178
	c4.684,4.034,5.21,11.101,1.178,15.782C209.48,56.88,202.416,57.407,197.732,53.374L197.732,53.374z M287.336,184.168
	c0.742-1.474,0.171-3.345-1.268-4.153l-12.333-6.958c1.018-3.685,1.571-7.414,1.712-11.121l13.912-2.798
	c1.616-0.325,2.737-1.927,2.487-3.559l-0.521-4.979c-0.092-1.648-1.523-2.983-3.173-2.967l-14.254,0.143
	c-0.943-3.622-2.299-7.125-4.037-10.439l10.702-9.428c1.235-1.09,1.408-3.036,0.376-4.324l-2.939-4.052
	c-0.903-1.38-2.811-1.821-4.229-0.979l-12.296,7.262c-2.582-2.634-5.484-5.004-8.694-7.036l4.556-13.515
	c0.526-1.564-0.301-3.335-1.837-3.936l-4.571-2.038c-1.475-0.742-3.345-0.173-4.154,1.265l-7.008,12.422
	c-3.663-1.032-7.373-1.607-11.065-1.767l-2.804-13.944c-0.325-1.617-1.927-2.738-3.56-2.489l-4.978,0.521
	c-1.648,0.095-2.982,1.521-2.966,3.172l0.142,14.209c-3.646,0.928-7.174,2.27-10.513,4.002l-9.354-10.62
	c-1.09-1.238-3.037-1.408-4.325-0.375l-4.052,2.938c-1.379,0.905-1.819,2.81-0.98,4.229l7.172,12.143
	c-2.679,2.603-5.091,5.531-7.156,8.777l-13.304-4.483c-1.562-0.525-3.333,0.3-3.934,1.836l-2.041,4.572
	c-0.74,1.474-0.17,3.344,1.268,4.154l12.197,6.881c-1.062,3.724-1.652,7.494-1.812,11.245l-13.675,2.752
	c-1.617,0.324-2.737,1.926-2.488,3.557l0.52,4.979c0.095,1.648,1.523,2.982,3.174,2.966l13.935-0.14
	c0.94,3.705,2.312,7.289,4.084,10.679l-10.429,9.187c-1.237,1.091-1.407,3.036-0.377,4.324l2.939,4.053
	c0.905,1.381,2.811,1.82,4.229,0.98l11.96-7.064c2.637,2.703,5.613,5.13,8.909,7.201l-4.434,13.151
	c-0.524,1.562,0.301,3.333,1.836,3.933l4.572,2.041c1.476,0.743,3.345,0.172,4.154-1.266l6.832-12.111
	c3.742,1.048,7.533,1.62,11.302,1.759l2.743,13.643c0.325,1.616,1.927,2.736,3.558,2.487l4.979-0.52
	c1.648-0.093,2.982-1.523,2.966-3.173l-0.141-13.981c3.683-0.957,7.24-2.341,10.604-4.119l9.26,10.512
	c1.093,1.236,3.037,1.406,4.325,0.377l4.052-2.939c1.383-0.905,1.821-2.811,0.981-4.229l-7.154-12.114
	c2.656-2.618,5.039-5.566,7.079-8.826l13.364,4.505c1.562,0.524,3.332-0.301,3.932-1.837L287.336,184.168L287.336,184.168z
	 M217.547,180.316c-11.179-4.982-16.199-18.083-11.217-29.262c4.983-11.178,18.083-16.197,29.262-11.216
	c11.178,4.982,16.199,18.083,11.218,29.261C241.824,180.277,228.723,185.299,217.547,180.316z"/>
</svg>
