<svg version="1.1" xmlns="http://www.w3.org/2000/svg" xmlns:xlink="http://www.w3.org/1999/xlink" x="0px" y="0px"
	 width="280.16px" height="224.77px" viewBox="0 0 280.16 224.77" enable-background="new 0 0 280.16 224.77" xml:space="preserve">
	<g id="heart">
		<g>
			<path fill="#FF0C3B" d="M229.1,37.92c-25.17-20.65-62.32-16.98-82.97,8.19l-5.28,6.44l-5.28-6.44
				c-20.65-25.17-57.8-28.84-82.97-8.19c-25.17,20.65-28.36,62.61-4.78,93.77c0,0,2.13,4.59,14.25,17.91
				c5.24,5.76,12.34,13.15,21.97,22.52c13.5,13.15,55.17,51.38,55.17,51.38c0.55,0.43,1.1,0.86,1.65,1.28
				c0.55-0.42,1.1-0.84,1.65-1.28c0,0,41.67-38.23,55.17-51.38c9.62-9.37,16.72-16.75,21.96-22.52
				c12.12-13.32,14.25-17.91,14.25-17.91C257.46,100.53,254.27,58.57,229.1,37.92z"/>
			<path fill="#FF671A" d="M275.01,3.31c-6.23-5.11-15.43-4.21-20.55,2.03l-1.31,1.59l-1.31-1.59c-5.11-6.23-14.31-7.14-20.55-2.03
				c-6.23,5.11-7.02,15.5-1.18,23.22c0,0,0.53,1.14,3.53,4.43c1.3,1.43,3.06,3.26,5.44,5.58c3.34,3.26,13.66,12.72,13.66,12.72
				c0.13,0.11,0.27,0.21,0.41,0.32c0.14-0.1,0.27-0.21,0.41-0.32c0,0,10.32-9.47,13.66-12.72c2.38-2.32,4.14-4.15,5.44-5.58
				c3-3.3,3.53-4.43,3.53-4.43C282.03,18.82,281.24,8.43,275.01,3.31z"/>
		</g>
	</g>
</svg>
