<svg xmlns="http://www.w3.org/2000/svg" width="280.16" height="224.77" viewBox="0 0 280.16 224.77"><path fill="#FF0C3B" d="M229.1 37.92c-25.17-20.65-62.32-16.98-82.97 8.19l-5.28 6.44-5.28-6.44c-20.65-25.17-57.8-28.84-82.97-8.19s-28.36 62.61-4.78 93.77c0 0 2.13 4.59 14.25 17.91 5.24 5.76 12.34 13.15 21.97 22.52 13.5 13.15 55.17 51.38 55.17 51.38.55.43 1.1.86 1.65 1.28.55-.42 1.1-.84 1.65-1.28 0 0 41.67-38.23 55.17-51.38 9.62-9.37 16.72-16.75 21.96-22.52 12.12-13.32 14.25-17.91 14.25-17.91 23.57-31.16 20.38-73.12-4.79-93.77z"/><path fill="#FF671A" d="M275.01 3.31c-6.23-5.11-15.43-4.21-20.55 2.03l-1.31 1.59-1.31-1.59c-5.11-6.23-14.31-7.14-20.55-2.03-6.23 5.11-7.02 15.5-1.18 23.22 0 0 .53 1.14 3.53 4.43 1.3 1.43 3.06 3.26 5.44 5.58 3.34 3.26 13.66 12.72 13.66 12.72l.41.32.41-.32s10.32-9.47 13.66-12.72c2.38-2.32 4.14-4.15 5.44-5.58 3-3.3 3.53-4.43 3.53-4.43 5.84-7.71 5.05-18.1-1.18-23.22z"/></svg>