<svg xmlns="http://www.w3.org/2000/svg" width="260" height="225" viewBox="0 0 260 225"><path fill="#D6D6D6" d="M222.58 42.5h-184.41c-2.74 0-5.17 1.62-5.17 4.36v122.63h194v-122.63c0-2.74-1.68-4.36-4.42-4.36z"/><path fill="#E0E0E0" d="M0 169.5h259v7h-259z"/><path fill="#ABABAB" d="M114.76 173.5h28.41c1.96 0 3.55-2 3.55-5h-35.51c0 3 1.59 5 3.55 5zm-114.76-5h259v1h-259zm218.14 8h-218.08c1 2 6.14 4 13.11 4h232.69c6.97 0 12.12-2 13.11-4h-40.83z"/><path d="M40 49.5h180v113h-180z"/><path d="M136.98 92.84c.95.55 1.28 1.77.73 2.72l-11.96 20.72c-.55.95-1.77 1.28-2.72.73-.95-.55-1.28-1.77-.73-2.72l11.96-20.72c.55-.95 1.76-1.28 2.72-.73zm-20.17 19.04l-9.93-6.96 9.93-6.95c.84-.58 1.04-1.74.45-2.57-.58-.83-1.74-1.04-2.57-.45l-12.09 8.47-.08.07-.17.14-.11.13-.09.11-.02.04-.09.16-.08.16-.05.15-.05.19-.02.16-.02.19.01.18.02.17.05.18.05.17.08.15.1.17.02.04.08.1.12.14.16.14.09.07 12.09 8.47c.83.58 1.98.38 2.57-.46.58-.82.38-1.97-.45-2.56zm26.38 0l9.93-6.96-9.93-6.95c-.83-.58-1.04-1.74-.45-2.57s1.74-1.04 2.57-.45l12.09 8.47.08.07.17.14.11.13.09.11.02.04.09.16.08.16.05.15.05.19.02.16.02.19-.01.18-.02.17-.05.18-.05.17-.08.15-.09.17-.02.04-.08.1-.12.14-.16.14-.09.07-12.09 8.47c-.83.58-1.99.38-2.57-.46-.59-.82-.39-1.97.44-2.56z" fill="#00DD0A"/></svg>