<?xml version="1.0" encoding="utf-8"?>
<!-- Generator: Adobe Illustrator 16.0.4, SVG Export Plug-In . SVG Version: 6.00 Build 0)  -->
<!DOCTYPE svg PUBLIC "-//W3C//DTD SVG 1.1//EN" "http://www.w3.org/Graphics/SVG/1.1/DTD/svg11.dtd">
<svg version="1.1" id="Layer_1" xmlns="http://www.w3.org/2000/svg" xmlns:xlink="http://www.w3.org/1999/xlink" x="0px" y="0px"
	 width="340px" height="225px" viewBox="-163 0 340 225" enable-background="new -163 0 340 225" xml:space="preserve">
<g>
	<path fill="#FCEBA7" d="M87.93,1H-73.5v223H87.93c4.18,0,7.57-3.59,7.57-8.02V8.39C95.5,3.96,92.109,1,87.93,1z M-65.5,212h-5v-6h5
		V212z M-65.5,201h-5v-6h5V201z M-65.5,189h-5v-6h5V189z M-65.5,178h-5v-6h5V178z M-65.5,167h-5v-6h5V167z M-65.5,155h-5v-6h5V155z
		 M-65.5,144h-5v-6h5V144z M-65.5,133h-5v-6h5V133z M-65.5,121h-5v-6h5V121z M-65.5,110h-5v-6h5V110z M-65.5,98h-5v-6h5V98z
		 M-65.5,87h-5v-6h5V87z M-65.5,76h-5v-6h5V76z M-65.5,64h-5v-6h5V64z M-65.5,53h-5v-6h5V53z M-65.5,42h-5v-6h5V42z M-65.5,30h-5v-6
		h5V30z M-65.5,19h-5v-6h5V19z"/>
	<g>
		<rect x="-51.5" y="39" fill="#BCBBB5" width="100" height="7"/>
		<rect x="-51.5" y="53" fill="#BCBBB5" width="108.5" height="7"/>
		<rect x="-51.5" y="81" fill="#BCBBB5" width="100" height="7"/>
		<rect x="-51.5" y="95" fill="#BCBBB5" width="89" height="7"/>
		<rect x="-51.5" y="67" fill="#BCBBB5" width="103.5" height="7"/>
		<rect x="-51.5" y="123" fill="#BCBBB5" width="100" height="7"/>
		<rect x="-51.5" y="137" fill="#BCBBB5" width="108.5" height="7"/>
		<rect x="-51.5" y="165" fill="#BCBBB5" width="100" height="7"/>
		<rect x="-51.5" y="179" fill="#BCBBB5" width="48" height="7"/>
		<rect x="-51.5" y="151" fill="#BCBBB5" width="103.5" height="7"/>
		<rect x="-51.5" y="109" fill="#BCBBB5" width="92" height="7"/>
	</g>
	<path fill="#BCBBB5" d="M95.5,216.609V9.02C95.5,4.59,92.109,1,87.93,1H-73.5v223H87.93C92.109,224,95.5,221.04,95.5,216.609z
		 M-65.5,19h-5v-6h5V19z M-65.5,30h-5v-6h5V30z M-65.5,42h-5v-6h5V42z M-65.5,53h-5v-6h5V53z M-65.5,64h-5v-6h5V64z M-65.5,76h-5v-6
		h5V76z M-65.5,87h-5v-6h5V87z M-65.5,98h-5v-6h5V98z M-65.5,110h-5v-6h5V110z M-65.5,121h-5v-6h5V121z M-65.5,133h-5v-6h5V133z
		 M-65.5,144h-5v-6h5V144z M-65.5,155h-5v-6h5V155z M-65.5,167h-5v-6h5V167z M-65.5,178h-5v-6h5V178z M-65.5,189h-5v-6h5V189z
		 M-65.5,201h-5v-6h5V201z M-65.5,212h-5v-6h5V212z"/>
	<path fill="#FEA507" d="M87.93,1H-73.5v223H87.93c4.18,0,7.57-3.59,7.57-8.02V8.39C95.5,3.96,92.109,1,87.93,1z M-65.5,212h-5v-6h5
		V212z M-65.5,201h-5v-6h5V201z M-65.5,189h-5v-6h5V189z M-65.5,178h-5v-6h5V178z M-65.5,167h-5v-6h5V167z M-65.5,155h-5v-6h5V155z
		 M-65.5,144h-5v-6h5V144z M-65.5,133h-5v-6h5V133z M-65.5,121h-5v-6h5V121z M-65.5,110h-5v-6h5V110z M-65.5,98h-5v-6h5V98z
		 M-65.5,87h-5v-6h5V87z M-65.5,76h-5v-6h5V76z M-65.5,64h-5v-6h5V64z M-65.5,53h-5v-6h5V53z M-65.5,42h-5v-6h5V42z M-65.5,30h-5v-6
		h5V30z M-65.5,19h-5v-6h5V19z"/>
	<path d="M-81.5,14h14v1h-14V14z M-81.5,17h14v1h-14V17z M-81.5,25h14v1h-14V25z M-81.5,28h14v1h-14V28z M-81.5,37h14v1h-14V37z
		 M-81.5,40h14v1h-14V40z M-81.5,48h14v1h-14V48z M-81.5,51h14v1h-14V51z M-81.5,59h14v1h-14V59z M-81.5,62h14v1h-14V62z M-81.5,71
		h14v1h-14V71z M-81.5,74h14v1h-14V74z M-81.5,82h14v1h-14V82z M-81.5,85h14v1h-14V85z M-81.5,93h14v1h-14V93z M-81.5,96h14v1h-14
		V96z M-81.5,105h14v1h-14V105z M-81.5,108h14v1h-14V108z M-81.5,116h14v1h-14V116z M-81.5,119h14v1h-14V119z M-81.5,128h14v1h-14
		V128z M-81.5,131h14v1h-14V131z M-81.5,139h14v1h-14V139z M-81.5,142h14v1h-14V142z M-81.5,150h14v1h-14V150z M-81.5,153h14v1h-14
		V153z M-81.5,162h14v1h-14V162z M-81.5,165h14v1h-14V165z M-81.5,173h14v1h-14V173z M-81.5,176h14v1h-14V176z M-81.5,184h14v1h-14
		V184z M-81.5,187h14v1h-14V187z M-81.5,196h14v1h-14V196z M-81.5,199h14v1h-14V199z M-81.5,207h14v1h-14V207z M-81.5,210h14v1h-14
		V210z"/>
	<path fill="#2E1547" d="M77.5,223c0,1.1-0.9,2-2,2h-4c-1.1,0-2-0.9-2-2V2c0-1.1,0.9-2,2-2h4c1.1,0,2,0.9,2,2V223z"/>
</g>
</svg>
