<?xml version="1.0" encoding="utf-8"?>
<!-- Generator: Adobe Illustrator 16.0.4, SVG Export Plug-In . SVG Version: 6.00 Build 0)  -->
<!DOCTYPE svg PUBLIC "-//W3C//DTD SVG 1.1//EN" "http://www.w3.org/Graphics/SVG/1.1/DTD/svg11.dtd">
<svg version="1.1" xmlns="http://www.w3.org/2000/svg" xmlns:xlink="http://www.w3.org/1999/xlink" x="0px" y="0px" width="207.8px"
	 height="224.48px" viewBox="0 0 207.8 224.48" enable-background="new 0 0 207.8 224.48" xml:space="preserve">
	
	<g>
		<polygon id="pine-l" fill="#059154" points="131.24,224.48 100.02,170.42 120.72,174.45 90.11,126.39 107.24,131.32 65.62,64.88 24,131.32 
			41.27,126.18 10.52,174.45 31.29,170.29 0,224.48 		"/>
		<polygon id="pine-m" fill="#059154" points="207.8,178.48 190.49,148.5 201.96,150.75 184.99,124.09 194.49,126.83 171.4,89.97 148.31,126.83 
			157.89,123.98 140.84,150.76 152.36,148.44 135,178.48 		"/>
		<polygon id="pine-s" fill="#059154" points="143.84,65.48 131.04,43.3 139.53,44.96 126.97,25.24 134,27.26 116.92,0 99.85,27.26 
			106.93,25.15 94.32,44.96 102.84,43.25 90,65.48 		"/>
		<polygon id="pine-s1" fill="#059154" points="186.54,48.48 181.66,40.02 184.9,40.65 180.1,33.13 182.79,33.9 176.27,23.5 169.76,33.9 
			172.46,33.1 167.65,40.65 170.9,40 166,48.48 		"/>
		<polygon id="pine-s2" fill="#059154" points="41.54,73.48 36.66,65.02 39.9,65.65 35.1,58.13 37.79,58.9 31.27,48.5 24.76,58.9 27.46,58.1 
			22.65,65.65 25.9,65 21,73.48 		"/>
	</g>
</svg>
