<svg xmlns="http://www.w3.org/2000/svg" width="207.8" height="224.48" viewBox="0 0 207.8 224.48"><g fill="#059154"><path d="M131.24 224.48l-31.22-54.06 20.7 4.03-30.61-48.06 17.13 4.93-41.62-66.44-41.62 66.44 17.27-5.14-30.75 48.27 20.77-4.16-31.29 54.19zM207.8 178.48l-17.31-29.98 11.47 2.25-16.97-26.66 9.5 2.74-23.09-36.86-23.09 36.86 9.58-2.85-17.05 26.78 11.52-2.32-17.36 30.04zM143.84 65.48l-12.8-22.18 8.49 1.66-12.56-19.72 7.03 2.02-17.08-27.26-17.07 27.26 7.08-2.11-12.61 19.81 8.52-1.71-12.84 22.23zM186.54 48.48l-4.88-8.46 3.24.63-4.8-7.52 2.69.77-6.52-10.4-6.51 10.4 2.7-.8-4.81 7.55 3.25-.65-4.9 8.48zM41.54 73.48l-4.88-8.46 3.24.63-4.8-7.52 2.69.77-6.52-10.4-6.51 10.4 2.7-.8-4.81 7.55 3.25-.65-4.9 8.48z"/></g></svg>